<svg xmlns="http://www.w3.org/2000/svg" x="0px" y="0px" width="150" height="150" viewBox="0,0,256,256"
style="fill:#000000;">
<g fill="#ffffff" fill-rule="nonzero" stroke="none" stroke-width="1" stroke-linecap="butt" stroke-linejoin="miter" stroke-miterlimit="10" stroke-dasharray="" stroke-dashoffset="0" font-family="none" font-weight="none" font-size="none" text-anchor="none" style="mix-blend-mode: normal"><g transform="scale(4,4)"><path d="M61,2h-40c-0.55228,0 -1,0.44772 -1,1v10c0,0.55228 0.44772,1 1,1h25.377l-2.6,6.194c-6.19519,-5.42183 -14.98998,-6.71659 -22.48485,-3.3102c-7.49488,3.40639 -12.30286,10.88355 -12.29215,19.1162c0,0.5 0.019,1.016 0.057,1.529l-6.764,6.764c-0.28591,0.28599 -0.37142,0.71604 -0.21668,1.08965c0.15474,0.37362 0.51928,0.61726 0.92368,0.61735h6v2c0.00551,4.96828 4.03172,8.99449 9,9h10v4c0,0.55228 0.44772,1 1,1h14c0.55228,0 1,-0.44772 1,-1v-9.367c4.16143,-3.70808 6.67079,-8.92372 6.97118,-14.48943c0.30039,-5.56571 -1.63302,-11.02113 -5.37118,-15.15557l9.641,-7.988h5.759c0.55228,0 1,-0.44772 1,-1v-10c0,-0.55228 -0.44772,-1 -1,-1zM42.35,50.421c-0.22187,0.18978 -0.34973,0.46704 -0.35,0.759v8.82h-12v-4.051c0.00067,-0.53333 -0.41733,-0.97333 -0.95,-1l-0.35,-0.013c-0.2,-0.007 -0.4,-0.013 -0.6,-0.033c-0.18448,-0.01696 -0.37005,0.01766 -0.536,0.1h-9.564c-3.86394,-0.00496 -6.99504,-3.13606 -7,-7v-3.003c0,-0.55228 -0.44772,-1 -1,-1h-4.586l5.086,-5.081c0.13179,-0.05739 0.25002,-0.14189 0.347,-0.248c0.18959,-0.20929 0.28185,-0.48898 0.254,-0.77c-0.064,-0.638 -0.1,-1.278 -0.1,-1.9c-0.00906,-8.78571 6.00667,-16.43186 14.54778,-18.4906c8.54111,-2.05873 17.37983,2.00693 21.37458,9.83194c3.99475,7.82501 2.1036,17.3684 -4.57336,23.07865zM60,12h-5c-0.00776,0.00119 -0.01544,0.00286 -0.023,0.005c-0.26514,-0.0271 -0.53004,0.05363 -0.735,0.224l-7.589,6.287l2,-4.771c0.31729,-0.27058 0.43126,-0.71083 0.28511,-1.10137c-0.14615,-0.39055 -0.52114,-0.64782 -0.93811,-0.64363h-26v-8h38z"></path><path d="M40,24h-22c-0.55228,0 -1,0.44772 -1,1v22c0,0.55228 0.44772,1 1,1h22c0.55228,0 1,-0.44772 1,-1v-22c0,-0.55228 -0.44772,-1 -1,-1zM39,26v4h-20v-4zM19,46v-14h20v14z"></path><rect x="20" y="27" width="2" height="2"></rect><rect x="23" y="27" width="2" height="2"></rect><rect x="26" y="27" width="2" height="2"></rect><path d="M31,9h-1v-2h1v-2h-4v2h1v2h-1v2h4z"></path><path d="M35,10h3c0.55228,0 1,-0.44772 1,-1v-4h-6v6h2zM37,7v1h-2v-1z"></path><path d="M43,11h1c0.40919,0.00015 0.77719,-0.24901 0.929,-0.629l2,-5l-1.858,-0.742l-1.571,3.929l-1.571,-3.929l-1.858,0.742l2,5c0.15181,0.37999 0.51981,0.62915 0.929,0.629z"></path><path d="M48,10h3v1h2v-1h1v-2h-1v-3h-2l-0.8,-0.6l-3,4c-0.22726,0.30302 -0.26382,0.70843 -0.09443,1.04721c0.16939,0.33878 0.51566,0.55279 0.89443,0.55279zM51,6.666v1.334h-1z"></path></g></g>
</svg>