<svg xmlns="http://www.w3.org/2000/svg" x="0px" y="0px" width="150" height="150" viewBox="0,0,256,256"
style="fill:#000000;">
<g fill="#ffffff" fill-rule="nonzero" stroke="none" stroke-width="1" stroke-linecap="butt" stroke-linejoin="miter" stroke-miterlimit="10" stroke-dasharray="" stroke-dashoffset="0" font-family="none" font-weight="none" font-size="none" text-anchor="none" style="mix-blend-mode: normal"><g transform="scale(5.12,5.12)"><path d="M25,2c-12.69141,0 -23,10.30859 -23,23c0,12.69141 10.30859,23 23,23c12.69141,0 23,-10.30859 23,-23c0,-12.69141 -10.30859,-23 -23,-23zM24,4.10156v9.86719c-2.82422,-0.06641 -5.50781,-0.41406 -7.92969,-0.99609c1.82422,-4.87891 4.69531,-8.28516 7.92969,-8.87109zM26,4.10156c3.23438,0.58594 6.10547,3.99219 7.92969,8.87109c-2.42187,0.58203 -5.10547,0.92969 -7.92969,0.99609zM18.46875,5.03906c-1.78906,1.80469 -3.29297,4.33203 -4.40234,7.38281c-1.61328,-0.50391 -3.07031,-1.10937 -4.35547,-1.79687c2.38281,-2.53516 5.37109,-4.48047 8.75781,-5.58594zM31.53125,5.03906c3.38672,1.10547 6.375,3.05078 8.75391,5.58594c-1.28125,0.6875 -2.73828,1.29297 -4.35156,1.79688c-1.10937,-3.05078 -2.61328,-5.57812 -4.40234,-7.38281zM8.39063,12.17188c1.49609,0.84375 3.18359,1.57422 5.05078,2.15625c-0.33594,1.16797 -0.625,2.39063 -0.84766,3.67188h2.07422c0.20703,-1.07812 0.46484,-2.11719 0.75781,-3.11328c2.63281,0.64453 5.52734,1.01563 8.57422,1.08203v2.03125h2v-2.03125c3.04688,-0.06641 5.94531,-0.43359 8.57422,-1.07812c0.29297,0.99219 0.55078,2.03125 0.75781,3.10938h2.07422c-0.22266,-1.27734 -0.51172,-2.5 -0.84766,-3.66797c1.86719,-0.58594 3.55469,-1.31641 5.05078,-2.16016c2.55469,3.30078 4.15625,7.375 4.36328,11.82813h-4.97266v2h4.97266c-0.20703,4.45313 -1.80859,8.52734 -4.36328,11.82813c-1.49609,-0.84375 -3.18359,-1.57422 -5.05078,-2.15625c0.33594,-1.16797 0.625,-2.39062 0.84766,-3.67187h-2.07422c-0.20703,1.07813 -0.46484,2.11719 -0.75781,3.11328c-2.63281,-0.64453 -5.52734,-1.01562 -8.57422,-1.08203v-2.03125h-2v2.03125c-3.04687,0.06641 -5.94531,0.43359 -8.57422,1.07813c-0.29297,-0.99219 -0.55078,-2.03125 -0.75781,-3.10937h-2.07422c0.22266,1.27734 0.51172,2.5 0.84766,3.66797c-1.86719,0.58594 -3.55469,1.31641 -5.05078,2.16016c-2.55469,-3.30078 -4.15625,-7.375 -4.36719,-11.82812h4.97656v-2h-4.97656c0.21094,-4.45312 1.8125,-8.52734 4.36719,-11.82812zM35.26563,20c-0.55469,0 -1.0625,0.06641 -1.52344,0.19922c-0.46094,0.12891 -0.85547,0.3125 -1.19531,0.55078c-0.33203,0.23438 -0.59375,0.51953 -0.77734,0.85938c-0.18359,0.33594 -0.28125,0.70703 -0.28125,1.10938c0,0.42578 0.09375,0.79688 0.27734,1.11328c0.17969,0.32031 0.42578,0.60156 0.73438,0.84375c0.30469,0.24219 0.66406,0.45313 1.07031,0.63281c0.40625,0.17578 0.83203,0.33594 1.27734,0.47266c0.37891,0.125 0.67578,0.24219 0.90234,0.35547c0.22656,0.10938 0.40234,0.22266 0.52734,0.34375c0.12109,0.11719 0.19922,0.24219 0.23828,0.37891c0.03906,0.13281 0.05859,0.28125 0.05859,0.45313c0,0.15234 -0.02734,0.30078 -0.06641,0.43359c-0.04297,0.13281 -0.11719,0.25 -0.21484,0.34766c-0.10547,0.09375 -0.23437,0.16797 -0.39453,0.22266c-0.16016,0.05859 -0.35547,0.08594 -0.58594,0.08594c-0.28125,0 -0.53125,-0.02734 -0.74219,-0.08594c-0.21094,-0.05469 -0.39453,-0.14453 -0.53906,-0.26953c-0.14062,-0.12891 -0.25,-0.29687 -0.32031,-0.5c-0.07031,-0.20312 -0.10547,-0.45312 -0.10547,-0.75h-2.41406c0,0.55469 0.12109,1.03125 0.35547,1.43359c0.23828,0.39844 0.55078,0.73047 0.9375,0.99219c0.38672,0.26563 0.82813,0.45703 1.32031,0.58594c0.49219,0.12891 0.99609,0.19141 1.50781,0.19141c0.56641,0 1.07813,-0.0625 1.53125,-0.18359c0.44922,-0.12109 0.83594,-0.30078 1.15625,-0.53125c0.31641,-0.22656 0.55859,-0.50781 0.73438,-0.84375c0.16797,-0.33203 0.25391,-0.71094 0.25391,-1.14062c0,-0.40234 -0.06641,-0.76172 -0.20312,-1.08203c-0.13672,-0.31641 -0.34375,-0.60156 -0.62109,-0.85937c-0.27734,-0.25391 -0.625,-0.48047 -1.03906,-0.67969c-0.41016,-0.19922 -0.89844,-0.38281 -1.45312,-0.54687c-0.26562,-0.09375 -0.51172,-0.1875 -0.73437,-0.28906c-0.21875,-0.09766 -0.40625,-0.20312 -0.5625,-0.3125c-0.15234,-0.11328 -0.27344,-0.23047 -0.35937,-0.35937c-0.08594,-0.13281 -0.125,-0.27344 -0.125,-0.4375c0,-0.15234 0.02344,-0.30078 0.07813,-0.4375c0.05859,-0.14062 0.14063,-0.26172 0.25,-0.35937c0.10547,-0.10156 0.24609,-0.17969 0.41016,-0.23828c0.16797,-0.05859 0.36328,-0.08984 0.59375,-0.08984c0.24609,0 0.45313,0.03516 0.62891,0.10547c0.17578,0.06641 0.31641,0.16406 0.42969,0.28516c0.11328,0.125 0.19531,0.26953 0.24609,0.44141c0.05078,0.17188 0.07813,0.36328 0.07813,0.56641h2.39453c0,-0.44141 -0.08594,-0.84766 -0.26172,-1.21094c-0.17578,-0.37109 -0.42187,-0.6875 -0.75,-0.95312c-0.32031,-0.26172 -0.71094,-0.46875 -1.17578,-0.62109c-0.46094,-0.14844 -0.97266,-0.22266 -1.54687,-0.22266zM11,20.13672v9.72656h3.125c0.69531,0 1.32813,-0.09375 1.89453,-0.27344c0.56641,-0.18359 1.05078,-0.44922 1.45313,-0.80078c0.40625,-0.34766 0.71484,-0.77734 0.93359,-1.28516c0.21875,-0.50781 0.32813,-1.08984 0.32813,-1.74219v-1.51172c0,-0.65625 -0.11328,-1.23437 -0.33203,-1.74609c-0.22266,-0.51172 -0.53125,-0.94141 -0.93359,-1.28906c-0.39844,-0.35156 -0.87891,-0.62109 -1.44531,-0.80469c-0.5625,-0.18359 -1.19141,-0.27344 -1.87891,-0.27344zM21,20.13672v9.72656h2.3125v-6.37891l3.375,6.37891h2.3125v-9.72656h-2.30078v6.38672l-3.38672,-6.38672zM13.40625,21.76953h0.74219c0.41406,0 0.76172,0.04688 1.04297,0.13672c0.28125,0.09375 0.50391,0.23828 0.67188,0.43359c0.17188,0.19531 0.29297,0.44922 0.35938,0.76172c0.07031,0.3125 0.10547,0.69141 0.10547,1.13672v1.52344c0,0.44141 -0.03516,0.81641 -0.10547,1.12891c-0.06641,0.3125 -0.1875,0.57031 -0.35937,0.76953c-0.16797,0.19922 -0.39453,0.34766 -0.67578,0.4375c-0.28516,0.08984 -0.64062,0.13672 -1.0625,0.13672h-0.71875zM24,36.03125v9.87109c-3.23437,-0.58984 -6.10547,-3.99609 -7.92969,-8.875c2.42188,-0.58203 5.10547,-0.92969 7.92969,-0.99609zM26,36.03125c2.82422,0.06641 5.50781,0.41406 7.92969,0.99609c-1.82422,4.87891 -4.69531,8.28516 -7.92969,8.875zM14.06641,37.57813c1.10938,3.05078 2.61328,5.57813 4.40234,7.38281c-3.38672,-1.10547 -6.375,-3.05078 -8.75781,-5.58594c1.28516,-0.6875 2.74219,-1.29297 4.35547,-1.79687zM35.93359,37.57813c1.61328,0.50391 3.07031,1.10938 4.35156,1.79688c-2.37891,2.53516 -5.36719,4.48047 -8.75391,5.58594c1.78906,-1.80469 3.29297,-4.33203 4.40234,-7.38281z"></path></g></g>
</svg>