<svg xmlns="http://www.w3.org/2000/svg" x="0px" y="0px" width="64" height="64" viewBox="0,0,256,256"
style="fill:#000000;">
<g fill="#ffffff" fill-rule="nonzero" stroke="none" stroke-width="1" stroke-linecap="butt" stroke-linejoin="miter" stroke-miterlimit="10" stroke-dasharray="" stroke-dashoffset="0" font-family="none" font-weight="none" font-size="none" text-anchor="none" style="mix-blend-mode: normal"><g transform="scale(4,4)"><path d="M5,8v43c0,2.21 1.79,4 4,4h46c2.21,0 4,-1.79 4,-4v-15c-1.37,0 -2.7,-0.13086 -4,-0.38086v15.38086h-46v-25.05469l16.22461,-0.58203l2.65625,-5.77734l9.87891,-0.2168c-0.5,-1.87 -0.75977,-3.83914 -0.75977,-5.86914c0,-0.17 -0.00023,-0.33 0.00977,-0.5h-12.00977l-5,-5zM46,13c0.07,3.405 1.55638,6.72662 3.98438,9.01563c2.411,2.312 5.74363,3.58138 9.01563,3.48438v-3c-2.498,-0.077 -4.88702,-1.17698 -6.54102,-2.95898c-1.666,-1.776 -2.54898,-4.17602 -2.45898,-6.54102zM53,13c0,3.31 2.69,6 6,6v-6zM39.5,13.00195c-0.038,2.549 0.42114,5.11977 1.36914,7.50977c0.945,2.391 2.36901,4.59708 4.16602,6.45508c1.798,1.855 3.96937,3.36053 6.35938,4.39453c2.388,1.037 4.99247,1.59367 7.60547,1.63867v-4c-4.2,0.096 -8.42223,-1.54077 -11.49023,-4.50977c-3.08554,-2.94656 -4.93824,-7.15597 -5.00977,-11.48828z"></path></g></g>
</svg>